<?xml version="1.0" standalone="no"?>
<!DOCTYPE svg PUBLIC "-//W3C//DTD SVG 20010904//EN"
 "http://www.w3.org/TR/2001/REC-SVG-20010904/DTD/svg10.dtd">
<svg version="1.0" xmlns="http://www.w3.org/2000/svg"
 width="1000.000000pt" height="1000.000000pt" viewBox="0 0 1000.000000 1000.000000"
 preserveAspectRatio="xMidYMid meet">
<metadata>
Created by potrace 1.11, written by Peter Selinger 2001-2013
</metadata>
<g transform="translate(0.000000,1000.000000) scale(0.100000,-0.100000)"
fill="#000000" stroke="none">
<path d="M6995 8720 c-3 -5 -34 -94 -69 -197 -363 -1072 -773 -1990 -1153
-2575 l-69 -107 -125 86 c-734 508 -1668 1081 -2187 1342 l-80 40 -265 -353
-265 -354 316 -198 c712 -446 1601 -1054 1993 -1364 l49 -39 -97 -118 c-720
-881 -1626 -1577 -2688 -2065 -263 -122 -599 -256 -832 -333 -62 -20 -115 -40
-118 -45 -2 -4 136 -135 308 -291 171 -156 331 -301 354 -322 l42 -39 157 62
c1196 473 2050 967 2764 1599 232 205 574 560 784 814 49 59 93 107 97 107 19
0 831 -824 954 -967 72 -83 135 -152 140 -152 8 -1 875 676 904 704 20 20
-767 755 -1194 1115 -93 78 -176 148 -183 155 -11 10 7 46 96 191 513 843 836
1530 1153 2451 70 205 126 333 185 426 24 37 44 76 44 87 0 50 -73 82 -367
160 -125 34 -319 90 -431 126 -111 35 -204 64 -207 64 -2 0 -7 -4 -10 -10z"/>
</g>
</svg>
